<svg width="192" height="48" viewBox="0 0 192 48" fill="none" xmlns="http://www.w3.org/2000/svg">
<path d="M0 0H64L56 16H8L0 0Z" fill="black"/>
<path d="M8 32H56L64 48H0L8 32Z" fill="black"/>
<rect width="12" height="48" fill="black"/>
<rect x="8" y="12" width="48" height="24" rx="6" fill="white"/>
<rect x="14" y="18" width="36" height="12" rx="3" fill="black"/>
<path d="M85.9743 19H94.8663V17.4375H87.7356V12.4943H94.2981V10.9318H87.7356V6.01705H94.7527V4.45455H85.9743V19ZM105.927 4.45455V19H107.575V7.94886H107.717L112.263 19H113.854L118.399 7.94886H118.541V19H120.189V4.45455H118.086L113.143 16.5284H112.973L108.03 4.45455H105.927ZM131.72 19H133.482V13.6875H136.664C140.051 13.6875 141.578 11.6278 141.578 9.05682C141.578 6.4858 140.051 4.45455 136.635 4.45455H131.72V19ZM133.482 12.125V6.01705H136.578C138.943 6.01705 139.845 7.30966 139.845 9.05682C139.845 10.804 138.943 12.125 136.607 12.125H133.482ZM151.62 6.01705H156.194V19H157.955V6.01705H162.529V4.45455H151.62V6.01705ZM171.998 4.45455L177.253 13.0057V19H179.015V13.0057L184.27 4.45455H182.253L178.219 11.2443H178.049L174.015 4.45455H171.998Z" fill="black"/>
<path d="M89.1248 43L90.2044 39.6832H95.4529L96.5325 43H99.8279L94.8137 28.4545H90.8507L85.8294 43H89.1248ZM90.9856 37.2827L92.7754 31.7784H92.889L94.6788 37.2827H90.9856ZM116.579 43H119.654V37.8438H121.898L124.654 43H128.049L124.959 37.3466C126.614 36.6364 127.53 35.1946 127.53 33.206C127.53 30.3153 125.62 28.4545 122.317 28.4545H116.579V43ZM119.654 35.3722V30.9688H121.728C123.503 30.9688 124.363 31.7571 124.363 33.206C124.363 34.6477 123.503 35.3722 121.742 35.3722H119.654ZM144.704 43H154.533V40.4645H147.779V36.9915H154.001V34.456H147.779V30.9901H154.505V28.4545H144.704V43ZM174.457 43L175.536 39.6832H180.785L181.865 43H185.16L180.146 28.4545H176.183L171.161 43H174.457ZM176.318 37.2827L178.107 31.7784H178.221L180.011 37.2827H176.318Z" fill="black"/>
</svg>
